<?xml version="1.0" encoding="UTF-8"?>
<!DOCTYPE svg PUBLIC "-//W3C//DTD SVG 1.1//EN" "http://www.w3.org/Graphics/SVG/1.1/DTD/svg11.dtd">
<svg xmlns="http://www.w3.org/2000/svg" version="1.1" width="169px" height="163px" style="shape-rendering:geometricPrecision; text-rendering:geometricPrecision; image-rendering:optimizeQuality; fill-rule:evenodd; clip-rule:evenodd" xmlns:xlink="http://www.w3.org/1999/xlink">
<g><path style="opacity:1" fill="#fcfdfd" d="M -0.5,-0.5 C 55.8333,-0.5 112.167,-0.5 168.5,-0.5C 168.5,53.8333 168.5,108.167 168.5,162.5C 112.167,162.5 55.8333,162.5 -0.5,162.5C -0.5,108.167 -0.5,53.8333 -0.5,-0.5 Z"/></g>
<g><path style="opacity:1" fill="#223353" d="M 78.5,0.5 C 91.5949,-0.651115 102.595,3.51555 111.5,13C 137.773,13.9397 151.273,27.4397 152,53.5C 166.815,68.309 168.481,84.6423 157,102.5C 155.333,104.167 153.667,105.833 152,107.5C 151.167,133.667 137.667,147.167 111.5,148C 99.4544,160.076 85.4544,163.076 69.5,157C 65.2525,154.757 61.5858,151.757 58.5,148C 32.3526,147.186 18.8526,133.686 18,107.5C 3.83257,92.9262 1.83257,76.9262 12,59.5C 14,57.5 16,55.5 18,53.5C 18.7461,27.4205 32.2461,13.9205 58.5,13C 64.1647,7.01267 70.8314,2.846 78.5,0.5 Z"/></g>
<g><path style="opacity:1" fill="#fcfcfc" d="M 148.5,72.5 C 149.2,76.7978 149.533,81.1311 149.5,85.5C 148.538,88.7568 147.038,91.7568 145,94.5C 142.154,96.2567 139.488,98.2567 137,100.5C 139.774,124.393 129.274,134.893 105.5,132C 102.734,135.522 99.7341,138.855 96.5,142C 88.7676,146.612 81.1009,146.612 73.5,142C 70.2659,138.855 67.2659,135.522 64.5,132C 40.9403,135.107 30.7736,124.94 34,101.5C 30.0342,98.536 26.3675,95.2026 23,91.5C 21.878,89.5932 21.0447,87.5932 20.5,85.5C 20.4672,81.1311 20.8005,76.7978 21.5,72.5C 24.7899,67.3758 28.9565,63.0424 34,59.5C 29.7033,45.2713 34.2033,35.1046 47.5,29C 53.1787,28.8024 58.8453,28.8024 64.5,29C 68.2916,23.2041 73.2916,18.8707 79.5,16C 85.5566,14.8384 91.2233,15.8384 96.5,19C 99.8702,22.035 102.87,25.3683 105.5,29C 129.262,26.0953 139.762,36.5953 137,60.5C 140,62.8333 143,65.1667 146,67.5C 147.094,69.0779 147.928,70.7446 148.5,72.5 Z"/></g>
<g><path style="opacity:1" fill="#203151" d="M 111.5,53.5 C 120.054,52.8717 123.221,56.5384 121,64.5C 106.833,78.6667 92.6667,92.8333 78.5,107C 76.1667,107.667 73.8333,107.667 71.5,107C 63.3023,99.1366 55.469,90.97 48,82.5C 47.8246,75.3532 51.3246,72.5199 58.5,74C 63.5,79 68.5,84 73.5,89C 74.5,89.6667 75.5,89.6667 76.5,89C 88.3687,77.2985 100.035,65.4651 111.5,53.5 Z"/></g>
<g><path style="opacity:1" fill="#929aaa" d="M 21.5,72.5 C 20.8005,76.7978 20.4672,81.1311 20.5,85.5C 19.8401,84.036 19.5068,82.3693 19.5,80.5C 19.3817,77.5143 20.0483,74.8476 21.5,72.5 Z"/></g>
<g><path style="opacity:1" fill="#929baa" d="M 148.5,72.5 C 149.952,74.8476 150.618,77.5143 150.5,80.5C 150.493,82.3693 150.16,84.036 149.5,85.5C 149.533,81.1311 149.2,76.7978 148.5,72.5 Z"/></g>
</svg>
